<?xml version="1.0" standalone="no"?>
<!DOCTYPE svg PUBLIC "-//W3C//DTD SVG 20010904//EN"
 "http://www.w3.org/TR/2001/REC-SVG-20010904/DTD/svg10.dtd">
<svg version="1.0" xmlns="http://www.w3.org/2000/svg"
 width="512.000000pt" height="512.000000pt" viewBox="0 0 512.000000 512.000000"
 preserveAspectRatio="xMidYMid meet">

	<g transform="translate(0.000000,512.000000) scale(0.100000,-0.100000)"
	fill="#000000" stroke="none">
		<path d="M500 5079 c-42 -58 -122 -225 -154 -321 -57 -174 -71 -269 -71 -473
0 -143 5 -212 18 -280 26 -129 72 -265 128 -383 l49 -102 -54 -73 c-200 -266
-340 -605 -391 -946 -88 -584 77 -1187 452 -1651 72 -89 264 -277 348 -341
333 -254 747 -412 1275 -486 181 -25 740 -25 925 1 348 48 660 138 919 268
224 111 393 235 571 420 319 329 507 709 581 1173 24 151 24 449 1 603 -55
355 -190 685 -393 959 l-54 73 49 103 c56 117 101 253 128 382 27 137 25 434
-5 572 -38 177 -128 400 -204 504 l-30 42 -110 -7 c-281 -17 -530 -100 -768
-257 -126 -82 -323 -281 -400 -402 -52 -83 -56 -87 -85 -82 -191 36 -256 40
-665 40 -411 0 -485 -5 -669 -41 -23 -5 -30 0 -49 35 -43 76 -159 217 -253
304 -256 242 -584 381 -948 403 l-109 7 -32 -44z m330 -85 c324 -61 636 -251
833 -508 63 -81 97 -131 97 -141 0 -3 -7 -5 -16 -5 -9 0 -80 -21 -156 -46
l-140 -47 -381 382 c-427 426 -409 398 -237 365z m3223 -365 l-381 -382 -140
47 c-76 25 -147 46 -156 46 -26 0 -20 13 46 102 173 234 398 400 671 497 96
34 251 69 307 70 34 1 21 -13 -347 -380z m567 246 c51 -110 95 -250 115 -373
21 -125 16 -395 -9 -507 -29 -129 -125 -385 -145 -385 -3 0 -27 21 -53 47
l-48 47 -34 -33 -35 -34 66 -71 c216 -233 389 -541 467 -835 l24 -88 -95 -43
c-99 -45 -253 -141 -290 -181 -89 -97 -51 -149 109 -149 71 0 129 9 302 47
l29 6 -6 -174 c-6 -152 -27 -342 -40 -356 -3 -2 -36 3 -73 13 -104 24 -292 31
-331 11 -77 -40 -37 -113 119 -217 48 -31 112 -68 143 -81 67 -29 68 -25 -14
-194 -133 -278 -306 -501 -536 -693 -346 -290 -828 -471 -1385 -521 -147 -14
-531 -14 -680 -1 -534 48 -1031 231 -1360 500 -237 194 -424 431 -555 703 -90
187 -89 170 -3 213 192 96 309 207 278 264 -24 45 -167 53 -332 20 -55 -12
-102 -19 -105 -17 -13 13 -34 204 -40 355 -5 144 -4 172 8 172 8 0 48 -9 89
-21 104 -27 293 -37 341 -16 85 35 46 111 -109 214 -45 30 -126 75 -178 98
-53 24 -97 45 -99 47 -7 6 51 198 85 284 47 117 124 267 194 374 60 92 190
255 234 294 29 25 28 37 -8 71 l-30 29 -45 -44 c-24 -24 -46 -42 -49 -39 -28
31 -104 227 -131 343 -78 326 -38 663 115 966 17 33 34 60 38 60 10 0 787
-778 782 -783 -3 -2 -43 -23 -89 -46 -77 -39 -229 -130 -276 -164 -17 -13 -18
-18 -7 -38 36 -65 31 -65 133 1 127 82 349 190 490 239 l117 39 31 -71 c85
-193 216 -358 295 -373 101 -18 160 90 142 259 -4 34 -16 106 -27 160 -12 54
-19 100 -18 101 2 2 32 6 65 9 l61 6 7 -82 c26 -310 112 -539 225 -597 179
-91 330 156 367 597 l7 82 61 -6 c33 -3 62 -7 64 -8 2 -2 -7 -50 -20 -107 -30
-136 -32 -295 -4 -351 24 -49 69 -72 121 -63 79 15 200 164 286 350 l43 94
115 -40 c144 -49 366 -157 490 -238 51 -33 94 -60 95 -58 2 2 12 17 24 35 12
17 22 35 22 41 0 18 -255 173 -347 211 -18 7 -33 16 -33 19 0 3 174 181 388
397 342 346 389 390 401 376 7 -9 30 -52 51 -96z"/>
		<path d="M1815 2946 c-60 -28 -97 -66 -124 -126 -17 -38 -21 -66 -21 -172 l0
-128 50 0 50 0 0 112 c0 139 18 185 84 217 23 12 53 21 66 21 13 0 43 -9 66
-21 66 -32 84 -78 84 -217 l0 -112 50 0 50 0 0 128 c0 113 -3 133 -24 177 -60
127 -206 180 -331 121z"/>
		<path d="M3095 2946 c-60 -28 -97 -66 -124 -126 -17 -38 -21 -66 -21 -172 l0
-128 50 0 50 0 0 112 c0 139 18 185 84 217 23 12 53 21 66 21 13 0 43 -9 66
-21 66 -32 84 -78 84 -217 l0 -112 50 0 50 0 0 128 c0 113 -3 133 -24 177 -60
127 -206 180 -331 121z"/>
		<path d="M2425 2751 c-48 -22 -79 -54 -100 -103 -36 -86 -10 -150 104 -263
l81 -80 0 -167 0 -168 -227 0 c-208 0 -230 2 -269 21 -31 15 -48 32 -63 63
-12 23 -21 48 -21 54 0 8 -18 12 -51 12 l-52 0 7 -42 c14 -86 96 -180 169
-195 l27 -5 0 -235 c0 -257 9 -325 58 -421 176 -345 638 -394 885 -92 96 117
117 208 117 516 l0 232 28 5 c72 15 154 109 168 195 l7 42 -52 0 c-33 0 -51
-4 -51 -12 0 -6 -9 -31 -21 -54 -15 -31 -32 -48 -63 -63 -39 -19 -61 -21 -269
-21 l-227 0 0 168 0 167 81 80 c81 80 118 138 119 185 0 76 -46 150 -115 181
-57 26 -214 26 -270 0z"/>
		<path d="M881 2243 c-6 -21 -11 -43 -11 -50 0 -13 3 -14 220 -68 80 -20 152
-38 161 -41 13 -3 19 7 28 42 7 26 10 49 7 51 -3 4 -375 100 -393 103 -1 0 -7
-17 -12 -37z"/>
		<path d="M4027 2230 c-104 -26 -190 -50 -193 -53 -3 -2 0 -26 7 -52 9 -35 16
-46 28 -42 9 2 96 24 195 48 98 24 181 49 183 55 6 15 -16 94 -25 93 -4 0 -92
-22 -195 -49z"/>
		<path d="M1075 1931 c-99 -26 -186 -49 -193 -52 -21 -7 5 -102 27 -96 9 2 96
24 195 48 98 24 181 49 183 55 6 15 -16 94 -25 93 -4 -1 -88 -23 -187 -48z"/>
		<path d="M3840 1939 c-6 -23 -9 -46 -7 -53 2 -6 85 -31 183 -55 99 -24 186
-46 195 -48 12 -4 19 7 28 42 7 26 10 50 7 52 -3 4 -375 101 -393 103 -1 0 -7
-18 -13 -41z"/>
	</g>
</svg>
